<svg width="630" height="630" viewBox="0 0 630 630" fill="none" xmlns="http://www.w3.org/2000/svg">
<circle cx="53.4151" cy="53.4151" r="53.4151" transform="matrix(-1 0 0 1 370.531 0)" fill="#FF5BB8"/>
<circle cx="53.4151" cy="53.4151" r="53.4151" transform="matrix(-1 0 0 1 173.186 70.1926)" fill="#FF0000"/>
<circle cx="53.4151" cy="53.4151" r="53.4151" transform="matrix(-1 0 0 1 106.83 266.134)" fill="#FF9300"/>
<circle cx="53.4151" cy="53.4151" r="53.4151" transform="matrix(-1 0 0 1 172.871 461.446)" fill="#FFDE00"/>
<circle cx="53.4151" cy="53.4151" r="53.4151" transform="matrix(-1 0 0 1 370.531 523.17)" fill="#90E937"/>
<circle cx="53.4151" cy="53.4151" r="53.4151" transform="matrix(-1 0 0 1 566.3 461.446)" fill="black"/>
<circle cx="53.4151" cy="53.4151" r="53.4151" transform="matrix(-1 0 0 1 630 266.134)" fill="#004FFA"/>
<circle cx="53.4151" cy="53.4151" r="53.4151" transform="matrix(-1 0 0 1 566.3 70.1926)" fill="#6222D8"/>
</svg>
