<svg width="120" height="120" viewBox="0 0 120 120" fill="none" xmlns="http://www.w3.org/2000/svg">
<rect width="120" height="120" fill="white"/>
<circle cx="9.32645" cy="9.32645" r="9.32645" transform="matrix(-1 0 0 1 69.6959 5)" fill="#FF5BB8"/>
<circle cx="9.32645" cy="9.32645" r="9.32645" transform="matrix(-1 0 0 1 35.2388 17.2559)" fill="#FF0000"/>
<circle cx="9.32645" cy="9.32645" r="9.32645" transform="matrix(-1 0 0 1 23.6529 51.4679)" fill="#FF9300"/>
<circle cx="9.32645" cy="9.32645" r="9.32645" transform="matrix(-1 0 0 1 35.1838 85.5698)" fill="#FFDE00"/>
<circle cx="9.32645" cy="9.32645" r="9.32645" transform="matrix(-1 0 0 1 69.6959 96.347)" fill="#90E937"/>
<circle cx="9.32645" cy="9.32645" r="9.32645" transform="matrix(-1 0 0 1 103.878 85.5698)" fill="black"/>
<circle cx="9.32645" cy="9.32645" r="9.32645" transform="matrix(-1 0 0 1 115 51.4679)" fill="#004FFA"/>
<circle cx="9.32645" cy="9.32645" r="9.32645" transform="matrix(-1 0 0 1 103.878 17.2559)" fill="#6222D8"/>
</svg>
