<svg width="100" height="100" viewBox="0 0 100 100" fill="none" xmlns="http://www.w3.org/2000/svg">
<rect width="100" height="100" fill="white"/>
<circle cx="6.0198" cy="6.0198" r="6.0198" transform="matrix(-1 0 0 1 55.7583 14.5)" fill="#FF5BB8"/>
<circle cx="6.0198" cy="6.0198" r="6.0198" transform="matrix(-1 0 0 1 33.5176 22.4106)" fill="#FF0000"/>
<circle cx="6.0198" cy="6.0198" r="6.0198" transform="matrix(-1 0 0 1 26.0396 44.4929)" fill="#FF9300"/>
<circle cx="6.0198" cy="6.0198" r="6.0198" transform="matrix(-1 0 0 1 33.4824 66.5042)" fill="#FFDE00"/>
<circle cx="6.0198" cy="6.0198" r="6.0198" transform="matrix(-1 0 0 1 55.7583 73.4604)" fill="#90E937"/>
<circle cx="6.0198" cy="6.0198" r="6.0198" transform="matrix(-1 0 0 1 77.8213 66.5042)" fill="black"/>
<circle cx="6.0198" cy="6.0198" r="6.0198" transform="matrix(-1 0 0 1 85 44.4929)" fill="#004FFA"/>
<circle cx="6.0198" cy="6.0198" r="6.0198" transform="matrix(-1 0 0 1 77.8213 22.4106)" fill="#6222D8"/>
</svg>
